<svg width="80" height="80" viewBox="0 0 80 80" fill="none" xmlns="http://www.w3.org/2000/svg">
<circle cx="40" cy="40" r="40" fill="#CAE636"/>
<path d="M18.1 25.9896C20.8435 24.8426 24.7774 23.6057 28.6028 23.2213C32.7258 22.8059 36.2226 23.4166 38.25 25.5525V55.7651C35.3515 54.1221 31.678 53.8958 28.2897 54.2368C24.6317 54.6088 20.9427 55.6659 18.1 56.7509V25.9896ZM41.35 25.5525C43.3774 23.4166 46.8742 22.8059 50.9972 23.2213C54.8226 23.6057 58.7565 24.8426 61.5 25.9896V56.7509C58.6542 55.6659 54.9683 54.6057 51.3103 54.2399C47.9189 53.8958 44.2485 54.119 41.35 55.7651V25.5525ZM39.8 22.7501C36.7465 20.1244 32.3197 19.7338 28.2897 20.1368C23.5963 20.6111 18.8595 22.22 15.9083 23.5623C15.6375 23.6855 15.4079 23.8839 15.2468 24.134C15.0858 24.3841 15.0001 24.6753 15 24.9728V59.0728C15.0001 59.3321 15.0652 59.5873 15.1895 59.815C15.3137 60.0426 15.4931 60.2354 15.7112 60.3758C15.9293 60.5161 16.1791 60.5995 16.4377 60.6183C16.6964 60.6371 16.9556 60.5907 17.1917 60.4833C19.9259 59.2433 24.331 57.7522 28.5997 57.3213C32.9676 56.8811 36.6287 57.591 38.591 60.04C38.7362 60.221 38.9203 60.3671 39.1295 60.4675C39.3388 60.5679 39.5679 60.62 39.8 60.62C40.0321 60.62 40.2612 60.5679 40.4705 60.4675C40.6797 60.3671 40.8638 60.221 41.009 60.04C42.9713 57.591 46.6324 56.8811 50.9972 57.3213C55.269 57.7522 59.6772 59.2433 62.4083 60.4833C62.6444 60.5907 62.9036 60.6371 63.1623 60.6183C63.4209 60.5995 63.6707 60.5161 63.8888 60.3758C64.1069 60.2354 64.2863 60.0426 64.4105 59.815C64.5348 59.5873 64.5999 59.3321 64.6 59.0728V24.9728C64.5999 24.6753 64.5142 24.3841 64.3532 24.134C64.1921 23.8839 63.9625 23.6855 63.6917 23.5623C60.7405 22.22 56.0037 20.6111 51.3103 20.1368C47.2803 19.7307 42.8535 20.1244 39.8 22.7501Z" fill="#056AE6"/>
</svg>
