<svg width="80" height="80" viewBox="0 0 80 80" fill="none" xmlns="http://www.w3.org/2000/svg">
<circle cx="40" cy="40" r="40" fill="#CAE636"/>
<path d="M45.6328 15.916L39.9999 13L34.3671 15.916L28.0963 16.8678L25.2546 22.5377L20.7422 26.9927L21.7749 33.25L20.7422 39.5073L25.2546 43.9622L28.0963 49.6323L34.3671 50.584L39.9999 53.5L45.6328 50.584L51.9036 49.6323L54.7453 43.9622L59.2577 39.5073L58.2249 33.25L59.2577 26.9927L54.7453 22.5377L51.9036 16.8678L45.6328 15.916ZM49.6693 19.9424L51.9778 24.5492L55.6431 28.1672L54.8061 33.25L55.6431 38.3328L51.9778 41.9508L49.6693 46.5576L44.5731 47.3305L39.9999 49.6997L35.4268 47.3305L30.3306 46.5576L28.0221 41.9508L24.3568 38.3328L25.1972 33.25L24.3534 28.1672L28.0221 24.5492L30.3306 19.9424L35.4268 19.1695L39.9999 16.8003L44.5764 19.1695L49.6693 19.9424Z" fill="#056AE6"/>
<path d="M26.5 52.8047V66.9999L40 63.6249L53.5 66.9999V52.8047L46.6893 53.8374L40 57.3002L33.3108 53.8374L26.5 52.8047Z" fill="#056AE6"/>
</svg>
