<svg width="430" height="219" viewBox="0 0 430 219" fill="none" xmlns="http://www.w3.org/2000/svg">
<g filter="url(#filter0_d_9_345)">
<rect x="3.99997" y="27.0257" width="92.833" height="125.922" rx="2.72273" fill="white"/>
<path opacity="0.5" d="M4 29.7485C4 28.2447 5.21901 27.0257 6.72273 27.0257H94.1103C95.614 27.0257 96.833 28.2447 96.833 29.7485V38.9745H4V29.7485Z" fill="#BABABA" fill-opacity="0.5"/>
<ellipse cx="10.3287" cy="33.5603" rx="1.58219" ry="1.63364" fill="#CBCBCB"/>
<ellipse cx="15.6026" cy="33.5603" rx="1.58219" ry="1.63364" fill="#CBCBCB"/>
<ellipse cx="20.8767" cy="33.5603" rx="1.58219" ry="1.63364" fill="#CBCBCB"/>
<circle cx="15.453" cy="44.6593" r="1.08909" fill="#8E8E8E"/>
<circle cx="15.453" cy="50.6494" r="1.08909" fill="#8E8E8E"/>
<circle cx="15.453" cy="56.6394" r="1.08909" fill="#8E8E8E"/>
<circle cx="15.453" cy="62.6294" r="1.08909" fill="#8E8E8E"/>
<circle cx="15.453" cy="68.6194" r="1.08909" fill="#8E8E8E"/>
<circle cx="15.453" cy="74.6094" r="1.08909" fill="#8E8E8E"/>
<circle cx="15.453" cy="80.5994" r="1.08909" fill="#8E8E8E"/>
<circle cx="15.453" cy="86.5894" r="1.08909" fill="#8E8E8E"/>
<circle cx="15.453" cy="92.5795" r="1.08909" fill="#8E8E8E"/>
<circle cx="15.453" cy="98.5694" r="1.08909" fill="#8E8E8E"/>
<circle cx="15.453" cy="104.559" r="1.08909" fill="#8E8E8E"/>
<circle cx="15.453" cy="110.549" r="1.08909" fill="#8E8E8E"/>
<circle cx="15.453" cy="116.539" r="1.08909" fill="#8E8E8E"/>
<rect x="21.2199" y="49.0157" width="13.1849" height="2.72273" rx="1.36137" fill="url(#paint0_linear_9_345)" fill-opacity="0.5"/>
<rect x="44.6303" y="61.0339" width="18.694" height="2.75742" rx="1.37871" fill="url(#paint1_linear_9_345)" fill-opacity="0.5"/>
<rect x="37.5692" y="55.5503" width="25.8424" height="2.72273" rx="1.36137" fill="url(#paint2_linear_9_345)" fill-opacity="0.5"/>
<rect x="21.4854" y="61.953" width="13.3528" height="2.75742" rx="1.37871" fill="url(#paint3_linear_9_345)" fill-opacity="0.5"/>
<rect x="32.2952" y="74.0648" width="23.7328" height="2.72273" rx="1.36137" fill="url(#paint4_linear_9_345)" fill-opacity="0.5"/>
<rect x="37.5088" y="98.7186" width="33.8272" height="2.75742" rx="1.37871" fill="url(#paint5_linear_9_345)" fill-opacity="0.5"/>
<rect x="37.545" y="133.646" width="33.8272" height="2.75742" rx="1.37871" fill="#0072FF"/>
<rect x="77.1239" y="74.0648" width="13.7123" height="2.72273" rx="1.36137" fill="url(#paint6_linear_9_345)" fill-opacity="0.5"/>
<rect x="27.5487" y="80.5994" width="13.7123" height="2.72273" rx="1.36137" fill="url(#paint7_linear_9_345)" fill-opacity="0.5"/>
<rect x="27.5849" y="115.527" width="13.7123" height="2.72273" rx="1.36137" fill="url(#paint8_linear_9_345)" fill-opacity="0.5"/>
<rect x="46.4107" y="80.3358" width="15.1332" height="2.75742" rx="1.37871" fill="url(#paint9_linear_9_345)" fill-opacity="0.5"/>
<rect x="46.4469" y="115.263" width="15.1332" height="2.75742" rx="1.37871" fill="url(#paint10_linear_9_345)" fill-opacity="0.5"/>
<rect x="28.0761" y="86.5894" width="24.7876" height="2.72273" rx="1.36137" fill="url(#paint11_linear_9_345)" fill-opacity="0.5"/>
<rect x="28.1124" y="121.517" width="24.7876" height="2.72273" rx="1.36137" fill="url(#paint12_linear_9_345)" fill-opacity="0.5"/>
<rect x="58.8734" y="109.748" width="24.7876" height="2.72273" rx="1.36137" fill="url(#paint13_linear_9_345)" fill-opacity="0.5"/>
<rect x="58.9096" y="144.676" width="24.7876" height="2.72273" rx="1.36137" fill="url(#paint14_linear_9_345)" fill-opacity="0.5"/>
<rect x="24.9117" y="92.5794" width="10.0205" height="2.72273" rx="1.36137" fill="url(#paint15_linear_9_345)" fill-opacity="0.5"/>
<rect x="46.0075" y="92.5794" width="29.5341" height="2.72273" rx="1.36137" fill="url(#paint16_linear_9_345)" fill-opacity="0.5"/>
<rect x="46.0438" y="127.507" width="29.5341" height="2.72273" rx="1.36137" fill="url(#paint17_linear_9_345)" fill-opacity="0.5"/>
<rect x="54.4224" y="105.153" width="18.694" height="2.75742" rx="1.37871" fill="url(#paint18_linear_9_345)" fill-opacity="0.5"/>
<rect x="37.5692" y="49.0157" width="13.1849" height="2.72273" rx="1.36137" fill="#CAE636"/>
<rect x="25.0461" y="67.4678" width="13.1849" height="2.72273" rx="1.36137" fill="#CAE636"/>
<rect x="61.302" y="74.0648" width="10.0205" height="2.72273" rx="1.36137" fill="#CAE636"/>
<rect x="56.2028" y="86.7698" width="24.9253" height="2.75742" rx="1.37871" fill="#CAE636"/>
<rect x="33.3501" y="105.104" width="10.0205" height="2.72273" rx="1.36137" fill="#CAE636"/>
<rect x="33.3863" y="140.031" width="10.0205" height="2.72273" rx="1.36137" fill="#CAE636"/>
<rect x="23.2657" y="109.748" width="29.5341" height="2.72273" rx="1.36137" fill="#CAE636"/>
<rect x="23.3019" y="144.676" width="29.5341" height="2.72273" rx="1.36137" fill="#CAE636"/>
<rect x="19.1104" y="74.0648" width="7.38353" height="2.72273" rx="1.36137" fill="#CAE636"/>
<circle cx="18.8762" cy="122.786" r="1.08909" fill="#8E8E8E"/>
<circle cx="18.8762" cy="128.776" r="1.08909" fill="#8E8E8E"/>
<circle cx="18.8762" cy="134.766" r="1.08909" fill="#8E8E8E"/>
<circle cx="18.8762" cy="140.756" r="1.08909" fill="#8E8E8E"/>
<circle cx="18.8762" cy="146.746" r="1.08909" fill="#8E8E8E"/>
</g>
<g filter="url(#filter1_d_9_345)">
<rect x="304.774" y="75.9554" width="112.97" height="50.3688" rx="2.13151" fill="white"/>
</g>
<path opacity="0.5" d="M304.774 78.0869C304.774 76.9097 305.728 75.9554 306.905 75.9554H415.612C416.789 75.9554 417.744 76.9097 417.744 78.0869V85.3341H304.774V78.0869Z" fill="#BABABA" fill-opacity="0.5"/>
<circle cx="309.889" cy="81.071" r="1.27891" fill="#CBCBCB"/>
<circle cx="314.152" cy="81.071" r="1.27891" fill="#CBCBCB"/>
<circle cx="318.415" cy="81.071" r="1.27891" fill="#CBCBCB"/>
<circle cx="328.22" cy="91.1693" r="0.852604" fill="#8E8E8E" fill-opacity="0.5"/>
<circle cx="328.22" cy="95.8586" r="0.852604" fill="#8E8E8E" fill-opacity="0.5"/>
<circle cx="328.22" cy="100.548" r="0.852604" fill="#8E8E8E" fill-opacity="0.5"/>
<circle cx="328.22" cy="105.237" r="0.852604" fill="#8E8E8E" fill-opacity="0.5"/>
<circle cx="328.22" cy="109.927" r="0.852604" fill="#8E8E8E" fill-opacity="0.5"/>
<circle cx="328.22" cy="114.616" r="0.852604" fill="#8E8E8E" fill-opacity="0.5"/>
<circle cx="328.22" cy="119.305" r="0.852604" fill="#8E8E8E" fill-opacity="0.5"/>
<rect x="332.91" y="93.8601" width="10.6576" height="2.13151" rx="1.06576" fill="url(#paint19_linear_9_345)" fill-opacity="0.5"/>
<rect x="332.836" y="89.627" width="19.428" height="2.15866" rx="1.07933" fill="url(#paint20_linear_9_345)" fill-opacity="0.5"/>
<rect x="346.125" y="98.9757" width="20.8888" height="2.13151" rx="1.06576" fill="url(#paint21_linear_9_345)" fill-opacity="0.5"/>
<rect x="332.91" y="103.665" width="17.9047" height="2.13151" rx="1.06576" fill="url(#paint22_linear_9_345)" fill-opacity="0.5"/>
<rect x="341.862" y="113.47" width="19.1836" height="2.13151" rx="1.06576" fill="url(#paint23_linear_9_345)" fill-opacity="0.5"/>
<rect x="378.098" y="113.47" width="11.0839" height="2.13151" rx="1.06576" fill="url(#paint24_linear_9_345)" fill-opacity="0.5"/>
<rect x="338.025" y="118.586" width="11.0839" height="2.13151" rx="1.06576" fill="url(#paint25_linear_9_345)" fill-opacity="0.5"/>
<rect x="353.372" y="118.586" width="20.0362" height="2.13151" rx="1.06576" fill="url(#paint26_linear_9_345)" fill-opacity="0.5"/>
<rect x="346.125" y="93.8601" width="10.6576" height="2.13151" rx="1.06576" fill="#CAE636"/>
<rect x="346.508" y="108.335" width="25.904" height="2.15866" rx="1.07933" fill="#CAE636"/>
<rect x="365.309" y="113.47" width="8.09974" height="2.13151" rx="1.06576" fill="#CAE636"/>
<rect x="331.204" y="113.47" width="5.96823" height="2.13151" rx="1.06576" fill="#CAE636"/>
<g filter="url(#filter2_d_9_345)">
<rect x="183.169" y="4" width="112.97" height="50.3688" rx="2.13151" fill="white"/>
</g>
<path opacity="0.5" d="M183.169 6.13151C183.169 4.95431 184.123 4 185.301 4H294.008C295.185 4 296.139 4.95431 296.139 6.13151V13.3786H183.169V6.13151Z" fill="#BABABA" fill-opacity="0.5"/>
<circle cx="188.285" cy="9.11561" r="1.27891" fill="#CBCBCB"/>
<circle cx="192.548" cy="9.11561" r="1.27891" fill="#CBCBCB"/>
<circle cx="196.811" cy="9.11561" r="1.27891" fill="#CBCBCB"/>
<circle cx="206.616" cy="19.2138" r="0.852604" fill="#8E8E8E" fill-opacity="0.5"/>
<circle cx="206.616" cy="23.9031" r="0.852604" fill="#8E8E8E" fill-opacity="0.5"/>
<circle cx="206.616" cy="28.5925" r="0.852604" fill="#8E8E8E" fill-opacity="0.5"/>
<circle cx="206.616" cy="33.2818" r="0.852604" fill="#8E8E8E" fill-opacity="0.5"/>
<circle cx="206.616" cy="37.9711" r="0.852604" fill="#8E8E8E" fill-opacity="0.5"/>
<circle cx="206.616" cy="42.6605" r="0.852604" fill="#8E8E8E" fill-opacity="0.5"/>
<circle cx="206.616" cy="47.3498" r="0.852604" fill="#8E8E8E" fill-opacity="0.5"/>
<rect x="211.305" y="21.9047" width="10.6576" height="2.13151" rx="1.06576" fill="url(#paint27_linear_9_345)" fill-opacity="0.5"/>
<rect x="211.232" y="17.6715" width="19.428" height="2.15866" rx="1.07933" fill="url(#paint28_linear_9_345)" fill-opacity="0.5"/>
<rect x="224.52" y="27.0203" width="20.8888" height="2.13151" rx="1.06576" fill="url(#paint29_linear_9_345)" fill-opacity="0.5"/>
<rect x="211.305" y="31.7096" width="17.9047" height="2.13151" rx="1.06576" fill="url(#paint30_linear_9_345)" fill-opacity="0.5"/>
<rect x="220.257" y="41.5146" width="19.1836" height="2.13151" rx="1.06576" fill="url(#paint31_linear_9_345)" fill-opacity="0.5"/>
<rect x="256.493" y="41.5146" width="11.0839" height="2.13151" rx="1.06576" fill="url(#paint32_linear_9_345)" fill-opacity="0.5"/>
<rect x="216.421" y="46.6302" width="11.0839" height="2.13151" rx="1.06576" fill="url(#paint33_linear_9_345)" fill-opacity="0.5"/>
<rect x="231.767" y="46.6302" width="20.0362" height="2.13151" rx="1.06576" fill="url(#paint34_linear_9_345)" fill-opacity="0.5"/>
<rect x="224.52" y="21.9047" width="10.6576" height="2.13151" rx="1.06576" fill="#0072FF"/>
<rect x="224.903" y="36.3799" width="25.904" height="2.15866" rx="1.07933" fill="#0072FF"/>
<rect x="243.704" y="41.5146" width="8.09974" height="2.13151" rx="1.06576" fill="#0072FF"/>
<rect x="209.6" y="41.5146" width="5.96823" height="2.13151" rx="1.06576" fill="#0072FF"/>
<g filter="url(#filter3_d_9_345)">
<rect x="105.457" y="68.0403" width="190.682" height="138.154" rx="3.59777" fill="white"/>
<path opacity="0.5" d="M105.457 71.6381C105.457 69.6511 107.068 68.0403 109.055 68.0403H292.541C294.528 68.0403 296.139 69.6511 296.139 71.6381V83.8705H105.457V71.6381Z" fill="#BABABA" fill-opacity="0.5"/>
<circle cx="114.092" cy="76.675" r="2.15866" fill="#CBCBCB"/>
<circle cx="121.287" cy="76.675" r="2.15866" fill="#CBCBCB"/>
<circle cx="128.483" cy="76.675" r="2.15866" fill="#CBCBCB"/>
<circle cx="145.033" cy="92.5052" r="1.43911" fill="#8E8E8E"/>
<circle cx="145.033" cy="100.42" r="1.43911" fill="#8E8E8E"/>
<circle cx="145.033" cy="108.335" r="1.43911" fill="#8E8E8E"/>
<circle cx="145.033" cy="116.25" r="1.43911" fill="#8E8E8E"/>
<circle cx="145.033" cy="124.166" r="1.43911" fill="#8E8E8E"/>
<circle cx="145.033" cy="132.081" r="1.43911" fill="#8E8E8E"/>
<circle cx="145.033" cy="139.996" r="1.43911" fill="#8E8E8E"/>
<circle cx="145.033" cy="147.911" r="1.43911" fill="#8E8E8E"/>
<circle cx="145.033" cy="155.826" r="1.43911" fill="#8E8E8E"/>
<circle cx="145.033" cy="163.741" r="1.43911" fill="#8E8E8E"/>
<circle cx="145.033" cy="171.656" r="1.43911" fill="#8E8E8E"/>
<circle cx="145.033" cy="179.571" r="1.43911" fill="#8E8E8E"/>
<circle cx="145.033" cy="187.486" r="1.43911" fill="#8E8E8E"/>
<rect x="152.948" y="98.2616" width="17.9889" height="3.59777" rx="1.79889" fill="#0072FF"/>
<rect x="175.254" y="106.896" width="35.2582" height="3.59777" rx="1.79889" fill="#0072FF"/>
<rect x="152.948" y="114.811" width="30.2213" height="3.59777" rx="1.79889" fill="#0072FF"/>
<rect x="168.058" y="131.361" width="32.3799" height="3.59777" rx="1.79889" fill="#0072FF"/>
<rect x="229.22" y="131.361" width="18.7084" height="3.59777" rx="1.79889" fill="#0072FF"/>
<rect x="161.582" y="139.996" width="18.7084" height="3.59777" rx="1.79889" fill="#0072FF"/>
<rect x="187.486" y="139.996" width="33.8191" height="3.59777" rx="1.79889" fill="#0072FF"/>
<rect x="162.302" y="147.911" width="33.8191" height="3.59777" rx="1.79889" fill="#0072FF"/>
<rect x="157.985" y="155.826" width="13.6715" height="3.59777" rx="1.79889" fill="#0072FF"/>
<rect x="186.767" y="155.826" width="40.295" height="3.59777" rx="1.79889" fill="#0072FF"/>
<rect x="198.28" y="172.376" width="40.295" height="3.59777" rx="1.79889" fill="#0072FF"/>
<rect x="175.254" y="98.2616" width="17.9889" height="3.59777" rx="1.79889" fill="#CAE636"/>
<rect x="207.634" y="131.361" width="13.6715" height="3.59777" rx="1.79889" fill="#CAE636"/>
<rect x="200.438" y="147.911" width="13.6715" height="3.59777" rx="1.79889" fill="#CAE636"/>
<rect x="169.497" y="172.376" width="13.6715" height="3.59777" rx="1.79889" fill="#CAE636"/>
<rect x="170.217" y="190.365" width="40.295" height="3.59777" rx="1.79889" fill="#CAE636"/>
<rect x="150.07" y="131.361" width="10.0738" height="3.59777" rx="1.79889" fill="#CAE636"/>
</g>
<defs>
<filter id="filter0_d_9_345" x="-3.05176e-05" y="23.0257" width="108.833" height="141.922" filterUnits="userSpaceOnUse" color-interpolation-filters="sRGB">
<feFlood flood-opacity="0" result="BackgroundImageFix"/>
<feColorMatrix in="SourceAlpha" type="matrix" values="0 0 0 0 0 0 0 0 0 0 0 0 0 0 0 0 0 0 127 0" result="hardAlpha"/>
<feOffset dx="4" dy="4"/>
<feGaussianBlur stdDeviation="4"/>
<feComposite in2="hardAlpha" operator="out"/>
<feColorMatrix type="matrix" values="0 0 0 0 0 0 0 0 0 0 0 0 0 0 0 0 0 0 0.25 0"/>
<feBlend mode="normal" in2="BackgroundImageFix" result="effect1_dropShadow_9_345"/>
<feBlend mode="normal" in="SourceGraphic" in2="effect1_dropShadow_9_345" result="shape"/>
</filter>
<filter id="filter1_d_9_345" x="300.774" y="71.9554" width="128.97" height="66.3688" filterUnits="userSpaceOnUse" color-interpolation-filters="sRGB">
<feFlood flood-opacity="0" result="BackgroundImageFix"/>
<feColorMatrix in="SourceAlpha" type="matrix" values="0 0 0 0 0 0 0 0 0 0 0 0 0 0 0 0 0 0 127 0" result="hardAlpha"/>
<feOffset dx="4" dy="4"/>
<feGaussianBlur stdDeviation="4"/>
<feComposite in2="hardAlpha" operator="out"/>
<feColorMatrix type="matrix" values="0 0 0 0 0 0 0 0 0 0 0 0 0 0 0 0 0 0 0.25 0"/>
<feBlend mode="normal" in2="BackgroundImageFix" result="effect1_dropShadow_9_345"/>
<feBlend mode="normal" in="SourceGraphic" in2="effect1_dropShadow_9_345" result="shape"/>
</filter>
<filter id="filter2_d_9_345" x="179.169" y="0" width="128.97" height="66.3688" filterUnits="userSpaceOnUse" color-interpolation-filters="sRGB">
<feFlood flood-opacity="0" result="BackgroundImageFix"/>
<feColorMatrix in="SourceAlpha" type="matrix" values="0 0 0 0 0 0 0 0 0 0 0 0 0 0 0 0 0 0 127 0" result="hardAlpha"/>
<feOffset dx="4" dy="4"/>
<feGaussianBlur stdDeviation="4"/>
<feComposite in2="hardAlpha" operator="out"/>
<feColorMatrix type="matrix" values="0 0 0 0 0 0 0 0 0 0 0 0 0 0 0 0 0 0 0.25 0"/>
<feBlend mode="normal" in2="BackgroundImageFix" result="effect1_dropShadow_9_345"/>
<feBlend mode="normal" in="SourceGraphic" in2="effect1_dropShadow_9_345" result="shape"/>
</filter>
<filter id="filter3_d_9_345" x="101.457" y="64.0403" width="206.682" height="154.154" filterUnits="userSpaceOnUse" color-interpolation-filters="sRGB">
<feFlood flood-opacity="0" result="BackgroundImageFix"/>
<feColorMatrix in="SourceAlpha" type="matrix" values="0 0 0 0 0 0 0 0 0 0 0 0 0 0 0 0 0 0 127 0" result="hardAlpha"/>
<feOffset dx="4" dy="4"/>
<feGaussianBlur stdDeviation="4"/>
<feComposite in2="hardAlpha" operator="out"/>
<feColorMatrix type="matrix" values="0 0 0 0 0 0 0 0 0 0 0 0 0 0 0 0 0 0 0.25 0"/>
<feBlend mode="normal" in2="BackgroundImageFix" result="effect1_dropShadow_9_345"/>
<feBlend mode="normal" in="SourceGraphic" in2="effect1_dropShadow_9_345" result="shape"/>
</filter>
<linearGradient id="paint0_linear_9_345" x1="27.8124" y1="49.0157" x2="27.8124" y2="51.7385" gradientUnits="userSpaceOnUse">
<stop stop-color="#CAE636" stop-opacity="0.03"/>
<stop offset="1" stop-color="#FFB5B5" stop-opacity="0"/>
</linearGradient>
<linearGradient id="paint1_linear_9_345" x1="53.9773" y1="61.0339" x2="53.9773" y2="63.7913" gradientUnits="userSpaceOnUse">
<stop stop-color="#CAE636" stop-opacity="0.03"/>
<stop offset="1" stop-color="#FFB5B5" stop-opacity="0"/>
</linearGradient>
<linearGradient id="paint2_linear_9_345" x1="50.4904" y1="55.5503" x2="50.4904" y2="58.273" gradientUnits="userSpaceOnUse">
<stop stop-color="#CAE636" stop-opacity="0.03"/>
<stop offset="1" stop-color="#FFB5B5" stop-opacity="0"/>
</linearGradient>
<linearGradient id="paint3_linear_9_345" x1="28.1619" y1="61.953" x2="28.1619" y2="64.7105" gradientUnits="userSpaceOnUse">
<stop stop-color="#CAE636" stop-opacity="0.03"/>
<stop offset="1" stop-color="#FFB5B5" stop-opacity="0"/>
</linearGradient>
<linearGradient id="paint4_linear_9_345" x1="44.1616" y1="74.0648" x2="44.1616" y2="76.7876" gradientUnits="userSpaceOnUse">
<stop stop-color="#CAE636" stop-opacity="0.03"/>
<stop offset="1" stop-color="#FFB5B5" stop-opacity="0"/>
</linearGradient>
<linearGradient id="paint5_linear_9_345" x1="54.4224" y1="98.7186" x2="54.4224" y2="101.476" gradientUnits="userSpaceOnUse">
<stop stop-color="#CAE636" stop-opacity="0.03"/>
<stop offset="1" stop-color="#FFB5B5" stop-opacity="0"/>
</linearGradient>
<linearGradient id="paint6_linear_9_345" x1="83.98" y1="74.0648" x2="83.98" y2="76.7876" gradientUnits="userSpaceOnUse">
<stop stop-color="#CAE636" stop-opacity="0.03"/>
<stop offset="1" stop-color="#FFB5B5" stop-opacity="0"/>
</linearGradient>
<linearGradient id="paint7_linear_9_345" x1="34.4048" y1="80.5994" x2="34.4048" y2="83.3221" gradientUnits="userSpaceOnUse">
<stop stop-color="#CAE636" stop-opacity="0.03"/>
<stop offset="1" stop-color="#FFB5B5" stop-opacity="0"/>
</linearGradient>
<linearGradient id="paint8_linear_9_345" x1="34.4411" y1="115.527" x2="34.4411" y2="118.249" gradientUnits="userSpaceOnUse">
<stop stop-color="#CAE636" stop-opacity="0.03"/>
<stop offset="1" stop-color="#FFB5B5" stop-opacity="0"/>
</linearGradient>
<linearGradient id="paint9_linear_9_345" x1="53.9773" y1="80.3358" x2="53.9773" y2="83.0932" gradientUnits="userSpaceOnUse">
<stop stop-color="#CAE636" stop-opacity="0.03"/>
<stop offset="1" stop-color="#FFB5B5" stop-opacity="0"/>
</linearGradient>
<linearGradient id="paint10_linear_9_345" x1="54.0135" y1="115.263" x2="54.0135" y2="118.02" gradientUnits="userSpaceOnUse">
<stop stop-color="#CAE636" stop-opacity="0.03"/>
<stop offset="1" stop-color="#FFB5B5" stop-opacity="0"/>
</linearGradient>
<linearGradient id="paint11_linear_9_345" x1="40.4699" y1="86.5894" x2="40.4699" y2="89.3121" gradientUnits="userSpaceOnUse">
<stop stop-color="#CAE636" stop-opacity="0.03"/>
<stop offset="1" stop-color="#FFB5B5" stop-opacity="0"/>
</linearGradient>
<linearGradient id="paint12_linear_9_345" x1="40.5062" y1="121.517" x2="40.5062" y2="124.239" gradientUnits="userSpaceOnUse">
<stop stop-color="#CAE636" stop-opacity="0.03"/>
<stop offset="1" stop-color="#FFB5B5" stop-opacity="0"/>
</linearGradient>
<linearGradient id="paint13_linear_9_345" x1="71.2671" y1="109.748" x2="71.2671" y2="112.471" gradientUnits="userSpaceOnUse">
<stop stop-color="#CAE636" stop-opacity="0.03"/>
<stop offset="1" stop-color="#FFB5B5" stop-opacity="0"/>
</linearGradient>
<linearGradient id="paint14_linear_9_345" x1="71.3034" y1="144.676" x2="71.3034" y2="147.398" gradientUnits="userSpaceOnUse">
<stop stop-color="#CAE636" stop-opacity="0.03"/>
<stop offset="1" stop-color="#FFB5B5" stop-opacity="0"/>
</linearGradient>
<linearGradient id="paint15_linear_9_345" x1="29.9219" y1="92.5794" x2="29.9219" y2="95.3021" gradientUnits="userSpaceOnUse">
<stop stop-color="#CAE636" stop-opacity="0.03"/>
<stop offset="1" stop-color="#FFB5B5" stop-opacity="0"/>
</linearGradient>
<linearGradient id="paint16_linear_9_345" x1="60.7746" y1="92.5794" x2="60.7746" y2="95.3021" gradientUnits="userSpaceOnUse">
<stop stop-color="#CAE636" stop-opacity="0.03"/>
<stop offset="1" stop-color="#FFB5B5" stop-opacity="0"/>
</linearGradient>
<linearGradient id="paint17_linear_9_345" x1="60.8109" y1="127.507" x2="60.8109" y2="130.229" gradientUnits="userSpaceOnUse">
<stop stop-color="#CAE636" stop-opacity="0.03"/>
<stop offset="1" stop-color="#FFB5B5" stop-opacity="0"/>
</linearGradient>
<linearGradient id="paint18_linear_9_345" x1="63.7694" y1="105.153" x2="63.7694" y2="107.91" gradientUnits="userSpaceOnUse">
<stop stop-color="#CAE636" stop-opacity="0.03"/>
<stop offset="1" stop-color="#FFB5B5" stop-opacity="0"/>
</linearGradient>
<linearGradient id="paint19_linear_9_345" x1="338.239" y1="93.8601" x2="338.239" y2="95.9916" gradientUnits="userSpaceOnUse">
<stop stop-color="#CAE636" stop-opacity="0.03"/>
<stop offset="1" stop-color="#FFB5B5" stop-opacity="0"/>
</linearGradient>
<linearGradient id="paint20_linear_9_345" x1="342.55" y1="89.627" x2="342.55" y2="91.7856" gradientUnits="userSpaceOnUse">
<stop stop-color="#CAE636" stop-opacity="0.03"/>
<stop offset="1" stop-color="#FFB5B5" stop-opacity="0"/>
</linearGradient>
<linearGradient id="paint21_linear_9_345" x1="356.569" y1="98.9757" x2="356.569" y2="101.107" gradientUnits="userSpaceOnUse">
<stop stop-color="#CAE636" stop-opacity="0.03"/>
<stop offset="1" stop-color="#FFB5B5" stop-opacity="0"/>
</linearGradient>
<linearGradient id="paint22_linear_9_345" x1="341.862" y1="103.665" x2="341.862" y2="105.797" gradientUnits="userSpaceOnUse">
<stop stop-color="#CAE636" stop-opacity="0.03"/>
<stop offset="1" stop-color="#FFB5B5" stop-opacity="0"/>
</linearGradient>
<linearGradient id="paint23_linear_9_345" x1="351.454" y1="113.47" x2="351.454" y2="115.602" gradientUnits="userSpaceOnUse">
<stop stop-color="#CAE636" stop-opacity="0.03"/>
<stop offset="1" stop-color="#FFB5B5" stop-opacity="0"/>
</linearGradient>
<linearGradient id="paint24_linear_9_345" x1="383.64" y1="113.47" x2="383.64" y2="115.602" gradientUnits="userSpaceOnUse">
<stop stop-color="#CAE636" stop-opacity="0.03"/>
<stop offset="1" stop-color="#FFB5B5" stop-opacity="0"/>
</linearGradient>
<linearGradient id="paint25_linear_9_345" x1="343.567" y1="118.586" x2="343.567" y2="120.717" gradientUnits="userSpaceOnUse">
<stop stop-color="#CAE636" stop-opacity="0.03"/>
<stop offset="1" stop-color="#FFB5B5" stop-opacity="0"/>
</linearGradient>
<linearGradient id="paint26_linear_9_345" x1="363.39" y1="118.586" x2="363.39" y2="120.717" gradientUnits="userSpaceOnUse">
<stop stop-color="#CAE636" stop-opacity="0.03"/>
<stop offset="1" stop-color="#FFB5B5" stop-opacity="0"/>
</linearGradient>
<linearGradient id="paint27_linear_9_345" x1="216.634" y1="21.9047" x2="216.634" y2="24.0362" gradientUnits="userSpaceOnUse">
<stop stop-color="#CAE636" stop-opacity="0.03"/>
<stop offset="1" stop-color="#FFB5B5" stop-opacity="0"/>
</linearGradient>
<linearGradient id="paint28_linear_9_345" x1="220.946" y1="17.6715" x2="220.946" y2="19.8302" gradientUnits="userSpaceOnUse">
<stop stop-color="#CAE636" stop-opacity="0.03"/>
<stop offset="1" stop-color="#FFB5B5" stop-opacity="0"/>
</linearGradient>
<linearGradient id="paint29_linear_9_345" x1="234.965" y1="27.0203" x2="234.965" y2="29.1518" gradientUnits="userSpaceOnUse">
<stop stop-color="#CAE636" stop-opacity="0.03"/>
<stop offset="1" stop-color="#FFB5B5" stop-opacity="0"/>
</linearGradient>
<linearGradient id="paint30_linear_9_345" x1="220.257" y1="31.7096" x2="220.257" y2="33.8411" gradientUnits="userSpaceOnUse">
<stop stop-color="#CAE636" stop-opacity="0.03"/>
<stop offset="1" stop-color="#FFB5B5" stop-opacity="0"/>
</linearGradient>
<linearGradient id="paint31_linear_9_345" x1="229.849" y1="41.5146" x2="229.849" y2="43.6461" gradientUnits="userSpaceOnUse">
<stop stop-color="#CAE636" stop-opacity="0.03"/>
<stop offset="1" stop-color="#FFB5B5" stop-opacity="0"/>
</linearGradient>
<linearGradient id="paint32_linear_9_345" x1="262.035" y1="41.5146" x2="262.035" y2="43.6461" gradientUnits="userSpaceOnUse">
<stop stop-color="#CAE636" stop-opacity="0.03"/>
<stop offset="1" stop-color="#FFB5B5" stop-opacity="0"/>
</linearGradient>
<linearGradient id="paint33_linear_9_345" x1="221.962" y1="46.6302" x2="221.962" y2="48.7617" gradientUnits="userSpaceOnUse">
<stop stop-color="#CAE636" stop-opacity="0.03"/>
<stop offset="1" stop-color="#FFB5B5" stop-opacity="0"/>
</linearGradient>
<linearGradient id="paint34_linear_9_345" x1="241.786" y1="46.6302" x2="241.786" y2="48.7617" gradientUnits="userSpaceOnUse">
<stop stop-color="#CAE636" stop-opacity="0.03"/>
<stop offset="1" stop-color="#FFB5B5" stop-opacity="0"/>
</linearGradient>
</defs>
</svg>
